<?xml version="1.0" standalone="no"?>
<!DOCTYPE svg PUBLIC "-//W3C//DTD SVG 20010904//EN"
 "http://www.w3.org/TR/2001/REC-SVG-20010904/DTD/svg10.dtd">
<svg version="1.0" xmlns="http://www.w3.org/2000/svg"
 width="500.000000pt" height="500.000000pt" viewBox="0 0 500.000000 500.000000"
 preserveAspectRatio="xMidYMid meet">

<g transform="translate(0.000000,500.000000) scale(0.100000,-0.100000)"
fill="#000000" stroke="none">
<path d="M2175 2906 c-69 -31 -110 -96 -102 -162 l4 -43 -69 -3 -70 -3 -38
-83 c-20 -46 -41 -83 -46 -82 -5 0 -25 37 -45 83 l-36 82 -72 3 c-39 2 -71 0
-71 -3 0 -4 5 -16 11 -28 12 -22 12 -22 -13 1 -66 60 -190 55 -259 -10 l-27
-25 -6 44 c-12 89 -73 168 -161 209 -43 21 -65 24 -167 24 l-118 0 0 -280 0
-280 103 0 c141 0 194 17 262 83 l53 52 23 -44 c58 -111 216 -135 315 -49 19
17 34 33 34 37 0 9 -66 41 -84 41 -8 0 -19 -7 -26 -15 -18 -22 -93 -20 -113 3
-10 10 -17 26 -17 35 0 15 15 17 126 17 l127 0 -6 42 -6 41 23 -39 c12 -21 42
-76 66 -121 l44 -83 41 0 41 0 79 148 c43 81 85 157 93 169 l13 22 27 -30 c15
-16 63 -48 107 -72 69 -36 80 -46 83 -72 7 -61 -70 -74 -162 -26 l-55 30 -30
-52 c-35 -59 -34 -61 49 -101 65 -30 198 -30 256 1 23 12 48 33 57 46 l16 25
40 -39 c85 -80 227 -80 310 -1 l40 38 25 -32 c50 -63 139 -82 209 -44 31 17
37 17 37 5 0 -12 13 -15 60 -15 l60 0 0 175 0 175 -60 0 c-45 0 -60 -4 -60
-14 0 -11 -8 -10 -37 5 -72 37 -161 17 -209 -47 l-25 -33 -37 37 c-89 89 -267
78 -334 -22 l-25 -36 -24 26 c-13 14 -64 46 -112 70 -81 41 -88 47 -85 72 2
16 13 32 29 41 26 14 55 9 131 -23 23 -11 74 86 54 103 -45 38 -182 53 -241
27z m-1046 -133 c52 -39 66 -70 66 -141 0 -54 -4 -73 -23 -100 -28 -38 -64
-59 -112 -63 l-35 -4 -3 169 -2 169 41 -6 c23 -3 54 -14 68 -24z m429 -170
l14 -23 -66 0 c-36 0 -66 3 -66 7 0 3 8 15 17 25 23 26 81 21 101 -9z m1127
-23 c26 -27 25 -84 -3 -112 -50 -50 -134 -15 -134 56 0 77 81 110 137 56z
m388 -2 c9 -11 17 -35 17 -53 0 -42 -26 -73 -67 -81 -27 -5 -37 -1 -63 24 -33
34 -38 66 -14 100 32 46 93 50 127 10z"/>
<path d="M3414 2698 c-69 -42 -64 -40 -64 -18 0 18 -6 20 -60 20 l-60 0 0
-175 0 -175 60 0 60 0 0 96 c0 125 14 154 77 154 53 0 62 -8 56 -45 -19 -119
88 -225 216 -213 27 3 66 14 86 24 l38 20 45 -23 c141 -71 305 22 250 142 -10
22 -71 59 -130 79 -21 6 -24 32 -4 39 7 3 31 1 52 -4 22 -4 42 -9 45 -9 3 0
13 16 23 37 20 42 15 49 -52 59 -92 14 -162 -12 -191 -71 l-13 -28 -20 31
c-55 87 -207 95 -290 15 l-27 -26 11 31 c7 17 9 34 6 38 -14 13 -93 15 -114 2z
m308 -85 c30 -27 21 -33 -47 -33 -36 0 -65 3 -65 7 0 3 7 15 17 25 20 22 70
23 95 1z m231 -123 c34 -15 47 -26 45 -38 -5 -25 -41 -26 -87 -3 -39 21 -40
21 -46 1 -6 -20 -7 -20 -47 1 -39 20 -43 20 -69 5 -54 -32 -139 -11 -139 35 0
18 8 19 125 19 122 0 125 1 125 22 l0 21 23 -21 c12 -11 44 -31 70 -42z"/>
<path d="M2677 2263 c-13 -13 -7 -21 13 -16 11 3 20 1 20 -4 0 -6 -9 -22 -20
-36 -26 -33 -25 -37 8 -36 15 1 20 3 10 6 -15 4 -15 6 0 32 8 15 13 35 9 44
-6 17 -28 23 -40 10z"/>
<path d="M2841 2256 c-19 -23 -10 -80 13 -85 38 -7 60 53 30 83 -19 20 -28 20
-43 2z m37 -38 c-3 -36 -30 -46 -36 -15 -5 26 5 47 23 47 12 0 15 -8 13 -32z"/>
<path d="M3010 2255 c-11 -13 -10 -14 3 -9 33 12 38 -7 12 -42 l-26 -34 33 1
c18 1 25 3 16 6 -22 6 -23 17 -3 33 20 16 19 46 -1 54 -21 8 -20 8 -34 -9z"/>
<path d="M3206 2235 c4 -15 2 -25 -5 -25 -6 0 -8 8 -4 18 6 15 5 15 -10 3 -23
-18 -21 -31 3 -31 12 0 20 -7 20 -17 0 -15 2 -14 14 3 8 10 10 21 5 22 -5 2
-9 15 -9 28 0 13 -5 24 -10 24 -6 0 -8 -11 -4 -25z"/>
<path d="M1765 2230 c-8 -14 3 -30 21 -30 8 0 14 -5 14 -11 0 -6 -9 -9 -20 -6
-11 3 -20 1 -20 -4 0 -13 38 -11 46 2 4 7 -4 20 -17 31 l-24 20 23 -5 c12 -3
22 -1 22 4 0 12 -37 11 -45 -1z"/>
<path d="M1923 2205 c0 -22 2 -30 4 -17 2 12 2 30 0 40 -3 9 -5 -1 -4 -23z"/>
<path d="M2041 2203 c1 -37 2 -37 8 -8 3 17 13 30 21 30 8 0 18 -13 21 -30 6
-29 7 -29 8 8 1 35 -1 37 -29 37 -28 0 -30 -2 -29 -37z"/>
<path d="M2214 2226 c-11 -28 1 -51 26 -53 25 -3 25 -3 3 7 -13 5 -23 16 -23
25 0 9 10 20 23 25 l22 9 -23 0 c-12 1 -25 -5 -28 -13z"/>
<path d="M2374 2226 c-15 -38 22 -74 49 -47 7 7 4 8 -10 5 -12 -3 -24 -1 -27
5 -5 7 3 11 19 11 20 0 26 4 23 18 -4 22 -46 29 -54 8z m36 -6 c0 -5 -7 -10
-15 -10 -8 0 -15 5 -15 10 0 6 7 10 15 10 8 0 15 -4 15 -10z"/>
</g>
</svg>
