<?xml version="1.0" standalone="no"?>
<!DOCTYPE svg PUBLIC "-//W3C//DTD SVG 20010904//EN"
 "http://www.w3.org/TR/2001/REC-SVG-20010904/DTD/svg10.dtd">
<svg version="1.0" xmlns="http://www.w3.org/2000/svg"
 width="1536.000000pt" height="1024.000000pt" viewBox="0 0 1536.000000 1024.000000"
 preserveAspectRatio="xMidYMid meet">

<g transform="translate(0.000000,1024.000000) scale(0.100000,-0.100000)"
fill="#000000" stroke="none">
<path d="M1975 6051 c-39 -16 -60 -51 -60 -98 0 -59 36 -93 99 -93 107 0 144
125 54 180 -35 21 -60 24 -93 11z"/>
<path d="M11530 6042 c-38 -18 -60 -65 -52 -108 14 -74 117 -101 173 -45 48
49 35 126 -26 156 -42 19 -52 19 -95 -3z"/>
<path d="M1597 6017 l-68 -9 3 -502 c3 -457 5 -504 21 -533 34 -63 107 -90
188 -69 27 7 52 16 55 18 3 3 -3 32 -13 65 -17 59 -18 60 -53 59 l-35 -1 -3
493 c-2 384 -5 492 -15 491 -6 -1 -43 -6 -80 -12z"/>
<path d="M9230 5824 l0 -206 -41 36 c-101 86 -257 60 -338 -57 -56 -81 -74
-156 -75 -302 -1 -146 12 -207 63 -287 47 -73 99 -102 191 -106 86 -4 141 15
178 63 27 34 32 32 32 -15 l0 -40 75 0 75 0 0 554 0 553 -61 7 c-110 11 -99
34 -99 -200z m-40 -290 l40 -36 0 -184 0 -184 -36 -40 c-84 -93 -200 -65 -235
57 -18 63 -18 243 0 306 8 27 29 64 46 83 29 31 38 34 89 34 50 0 60 -4 96
-36z"/>
<path d="M11937 6017 l-68 -9 3 -502 c3 -483 4 -502 23 -536 28 -47 75 -72
136 -72 43 0 109 17 109 28 0 3 -7 31 -16 64 -17 57 -18 59 -46 53 -20 -4 -33
-1 -39 8 -5 8 -9 231 -9 497 0 379 -3 482 -12 481 -7 -1 -44 -6 -81 -12z"/>
<path d="M4429 5945 c-160 -51 -245 -210 -195 -362 33 -99 100 -152 276 -218
133 -50 174 -91 172 -172 -1 -86 -57 -143 -148 -151 -77 -6 -154 13 -216 54
l-51 35 -49 -48 c-26 -26 -48 -50 -48 -53 1 -3 20 -19 43 -36 105 -77 218
-111 331 -101 194 18 316 140 316 316 0 141 -63 223 -216 285 -211 86 -254
120 -254 203 0 133 192 167 334 58 l33 -25 39 56 39 56 -39 34 c-21 19 -64 43
-95 55 -73 28 -208 35 -272 14z"/>
<path d="M10900 5944 c-142 -38 -220 -149 -208 -297 6 -72 32 -129 80 -173 39
-38 89 -63 211 -110 113 -43 153 -72 168 -123 23 -78 -22 -166 -98 -192 -79
-26 -200 2 -288 66 -20 14 -24 12 -70 -35 l-49 -50 34 -29 c98 -83 246 -124
371 -103 178 31 280 144 279 310 -1 158 -65 230 -279 312 -155 61 -191 94
-191 178 0 132 215 167 333 55 31 -30 24 -34 83 50 25 35 26 38 10 56 -27 29
-126 78 -184 90 -70 15 -135 13 -202 -5z"/>
<path d="M180 5425 l0 -516 83 3 82 3 3 213 2 213 145 -3 145 -3 0 73 0 72
-145 0 -145 0 0 160 0 160 175 0 175 0 0 70 0 70 -260 0 -260 0 0 -515z"/>
<path d="M2591 5695 c-25 -8 -63 -32 -87 -56 l-42 -42 -7 47 -7 46 -69 0 -69
0 0 -545 c0 -341 4 -545 10 -545 5 0 43 5 85 11 l75 11 0 171 0 170 23 -20
c107 -98 297 -43 371 107 41 81 51 138 51 275 -1 148 -18 221 -70 289 -57 75
-173 111 -264 81z m108 -161 c48 -40 64 -112 59 -253 -3 -90 -9 -127 -25 -163
-38 -85 -125 -112 -208 -65 l-40 23 -5 194 c-5 179 -3 197 14 223 46 70 147
90 205 41z"/>
<path d="M5950 5700 c-66 -14 -160 -51 -160 -63 0 -20 34 -117 41 -117 3 0 27
9 51 20 96 42 211 35 244 -15 8 -13 16 -49 17 -81 l2 -59 -95 -6 c-52 -3 -114
-11 -137 -17 -55 -16 -122 -68 -151 -117 -20 -35 -22 -51 -20 -127 3 -77 6
-91 33 -129 43 -62 110 -93 194 -93 75 1 117 18 172 71 l36 34 21 -35 c25 -42
56 -63 101 -68 34 -3 35 -2 52 57 16 52 16 61 4 68 -35 19 -40 51 -45 282 -5
210 -7 233 -27 270 -27 51 -68 90 -115 109 -47 20 -159 28 -218 16z m200 -506
l0 -75 -44 -47 c-42 -44 -48 -47 -96 -47 -46 0 -55 4 -82 34 -27 31 -30 39
-26 87 8 90 55 123 176 124 l72 0 0 -76z"/>
<path d="M6828 5700 c-49 -15 -86 -49 -114 -105 -14 -30 -28 -55 -30 -55 -1 0
-2 10 -2 23 1 12 1 46 0 75 l-2 52 -70 0 -70 0 0 -390 0 -390 80 0 80 0 0 231
0 231 31 59 c45 83 60 94 130 94 32 0 59 0 59 0 0 0 7 38 15 84 12 67 12 87 2
93 -15 10 -74 9 -109 -2z"/>
<path d="M7907 5696 c-60 -16 -114 -60 -145 -117 -19 -36 -23 -55 -20 -109 6
-107 63 -163 219 -215 114 -38 143 -61 147 -112 4 -54 -11 -81 -53 -99 -69
-29 -175 -12 -236 36 l-36 29 -47 -54 -46 -54 33 -25 c18 -14 60 -38 92 -53
54 -25 71 -28 165 -27 113 0 154 11 218 61 45 34 82 114 82 178 0 111 -64 176
-232 236 -135 48 -178 102 -133 166 31 44 164 42 230 -3 20 -13 37 -24 38 -24
5 0 77 97 77 103 0 14 -102 68 -155 82 -70 18 -133 18 -198 1z"/>
<path d="M9755 5696 c-33 -8 -81 -23 -107 -35 l-48 -20 22 -61 c12 -33 27 -58
33 -56 5 3 41 15 78 27 95 30 160 23 199 -20 24 -27 28 -40 28 -91 l0 -60 -79
0 c-145 0 -256 -53 -303 -143 -28 -57 -29 -155 0 -219 62 -140 285 -167 387
-46 25 29 28 30 37 14 26 -46 65 -78 105 -86 l42 -7 16 52 c19 67 19 64 -7 93
-22 23 -23 33 -29 255 -6 249 -10 271 -62 333 -57 68 -191 97 -312 70z m205
-505 c0 -71 -3 -83 -26 -111 -49 -57 -108 -74 -163 -46 -77 40 -63 184 22 221
17 8 62 14 100 15 l67 0 0 -79z"/>
<path d="M13106 5700 c-69 -12 -166 -50 -166 -64 0 -11 30 -107 35 -114 1 -1
36 9 78 23 86 28 133 31 182 11 42 -18 54 -39 62 -116 l6 -60 -76 0 c-101 0
-164 -15 -228 -53 -154 -91 -145 -328 15 -409 50 -26 154 -29 206 -6 19 9 51
32 71 52 l37 37 22 -36 c25 -40 66 -65 108 -65 27 0 30 4 45 57 15 51 15 58 2
66 -38 21 -45 60 -45 264 -1 214 -8 268 -45 325 -47 71 -184 110 -309 88z
m194 -509 c0 -78 0 -79 -39 -119 -81 -83 -187 -61 -207 44 -10 53 14 105 61
131 31 18 56 23 113 23 l72 0 0 -79z"/>
<path d="M978 5691 c-103 -33 -190 -141 -217 -269 -15 -73 -14 -216 3 -280 28
-104 93 -184 185 -226 36 -16 66 -21 141 -20 83 0 102 3 150 27 30 15 66 36
78 47 l24 20 -32 52 c-41 67 -37 64 -58 45 -29 -26 -105 -57 -142 -57 -49 0
-113 32 -143 71 -23 31 -47 95 -47 127 0 9 51 12 221 12 l221 0 -4 123 c-3
105 -7 130 -29 177 -28 60 -74 111 -123 137 -35 19 -184 28 -228 14z m153
-127 c39 -20 67 -81 70 -154 l3 -55 -143 -3 -144 -3 6 54 c14 137 111 212 208
161z"/>
<path d="M3289 5686 c-124 -44 -198 -150 -220 -314 -22 -163 18 -310 107 -392
72 -66 123 -85 229 -85 76 0 99 5 145 26 30 14 66 35 80 46 l24 21 -28 53
c-16 30 -30 55 -32 57 -1 2 -19 -8 -41 -21 -81 -53 -161 -58 -229 -16 -37 22
-84 108 -84 151 l0 28 214 0 215 0 7 45 c10 70 -11 216 -39 272 -50 97 -128
143 -242 142 -38 0 -86 -6 -106 -13z m165 -127 c38 -30 56 -71 63 -144 l6 -65
-147 0 -146 0 6 43 c13 91 49 158 98 177 39 16 92 11 120 -11z"/>
<path d="M5184 5684 c-87 -31 -159 -116 -189 -219 -23 -76 -16 -296 10 -368
24 -66 102 -149 167 -177 80 -35 195 -34 271 3 101 50 160 144 178 287 27 219
-41 399 -176 465 -53 26 -202 31 -261 9z m194 -134 c52 -32 75 -95 80 -220 9
-224 -55 -324 -193 -299 -47 8 -89 51 -105 106 -29 103 -21 294 16 365 34 65
135 89 202 48z"/>
<path d="M7203 5684 c-97 -35 -180 -150 -204 -279 -16 -85 -6 -227 20 -297 29
-75 97 -150 169 -185 50 -24 68 -28 147 -28 76 0 99 5 145 26 30 14 66 35 80
46 l24 21 -19 35 c-10 19 -26 45 -34 56 -16 20 -16 20 -59 -9 -78 -52 -175
-50 -240 5 -30 25 -54 72 -67 133 l-7 32 221 0 221 0 0 103 c0 167 -43 269
-137 324 -39 23 -60 27 -132 30 -59 2 -99 -2 -128 -13z m186 -129 c35 -30 49
-69 53 -145 l3 -55 -144 -3 -144 -3 6 52 c8 69 43 137 81 160 45 28 107 25
145 -6z"/>
<path d="M1930 5300 l0 -390 80 0 80 0 0 390 0 390 -80 0 -80 0 0 -390z"/>
<path d="M11500 5300 l0 -390 80 0 80 0 0 390 0 390 -80 0 -80 0 0 -390z"/>
<path d="M12180 5685 c0 -3 39 -130 86 -282 47 -153 100 -325 118 -383 l32
-105 93 0 94 0 113 365 c62 201 115 375 119 388 5 21 3 22 -77 22 l-83 0 -55
-212 c-79 -310 -107 -405 -114 -388 -6 16 -114 423 -142 533 l-16 67 -84 0
c-46 0 -84 -2 -84 -5z"/>
</g>
</svg>
