<?xml version="1.0" encoding="utf-8"?>
<!-- Generator: Adobe Illustrator 27.5.0, SVG Export Plug-In . SVG Version: 6.00 Build 0)  -->
<svg version="1.1" xmlns="http://www.w3.org/2000/svg" xmlns:xlink="http://www.w3.org/1999/xlink" x="0px" y="0px"
	 viewBox="0 0 500 500" style="enable-background:new 0 0 500 500;" xml:space="preserve">
<g id="BACKGROUND">
</g>
<g id="OBJECTS">
	<g>
		<path style="fill:#E1E8EB;" d="M262.194,44.007c0,0-0.449,70.049,5.837,72.294c6.286,2.245,70.049,4.49,72.744,0
			c2.694-4.49-0.449-71.846-4.041-74.091C333.141,39.966,263.99,39.517,262.194,44.007z"/>
		<path style="fill:#7952B3;" d="M246.516,31.187c0,0-0.291,45.378,3.782,46.832c4.072,1.454,45.378,2.909,47.123,0
			c1.745-2.909-0.291-46.541-2.618-47.996C292.475,28.569,247.68,28.278,246.516,31.187z"/>
		<path style="fill:none;stroke:#343A40;stroke-width:2;stroke-linecap:round;stroke-miterlimit:10;" d="M320.354,100.44
			c0,0-0.168,26.197,2.183,27.037c2.351,0.84,26.197,1.679,27.205,0c1.008-1.679-0.168-26.869-1.511-27.708
			C346.886,98.928,321.025,98.76,320.354,100.44z"/>
	</g>
	<g>
		<path style="fill:#E1E8EB;" d="M324.339,155.455c0,0-68.725,37.261-62.929,45.541c5.796,8.28,85.286,44.713,85.286,33.121
			C346.696,222.524,335.932,151.315,324.339,155.455z"/>
		<path style="fill:none;stroke:#343A40;stroke-width:2;stroke-linecap:round;stroke-miterlimit:10;" d="M323.415,204.951
			c0,0-44.335-5.814-44.431-0.034s24.487,49.336,28.379,43.968C311.254,243.516,330.173,206.925,323.415,204.951z"/>
		<path style="fill:#FFC107;" d="M349.256,182.699c0,0-10.44-43.479-15.871-41.499c-5.431,1.98-37.303,40.523-30.898,42.235
			C308.893,185.147,349.832,189.716,349.256,182.699z"/>
	</g>
	<g>
		<path style="fill:#E1E8EB;" d="M150.263,162.009c0,0-0.449,70.049,5.837,72.294c6.286,2.245,70.049,4.49,72.744,0
			c2.694-4.49-0.449-71.845-4.041-74.091C221.21,157.968,152.059,157.519,150.263,162.009z"/>
		<circle style="fill:#7952B3;" cx="187.53" cy="199.609" r="17.74"/>
		
			<ellipse transform="matrix(0.1512 -0.9885 0.9885 0.1512 -98.8058 354.5797)" style="fill:none;stroke:#343A40;stroke-width:2;stroke-linecap:round;stroke-miterlimit:10;" cx="157.072" cy="234.825" rx="17.74" ry="17.74"/>
	</g>
	<g>
		<path style="fill:#E1E8EB;" d="M92.159,36.697c0,0-68.725,37.261-62.929,45.541c5.796,8.28,85.286,44.713,85.286,33.121
			S103.751,32.557,92.159,36.697z"/>
		<path style="fill:#FFC107;" d="M40.596,110.531c-1.667-0.714,27.802-32.033,33.241-34.45c5.439-2.418,16.318,44.12,14.505,43.516
			C86.529,118.992,49.057,114.157,40.596,110.531z"/>
		<path style="fill:none;stroke:#343A40;stroke-width:2;stroke-linecap:round;stroke-miterlimit:10;" d="M48.102,50.688
			c1.108-1.478,14.701-6.928,20.943-9.375c1.434-0.562,2.958,0.571,2.838,2.107l-1.408,17.95c-0.119,1.521,1.38,2.651,2.809,2.118
			l22.171-8.267c1.446-0.539,2.956,0.623,2.806,2.159l-1.632,16.648c-0.174,1.779,1.824,2.94,3.283,1.906l20.748-6.983"/>
	</g>
	<g>
		<path style="fill:none;stroke:#E1E8EB;stroke-width:16;stroke-linecap:round;stroke-miterlimit:10;" d="M423.35,41.449
			c0,0-45.5,3.193-41.509,47.495c3.991,44.302,65.057,40.71,69.048,8.781c3.991-31.93-31.543-44.832-46.407-23.319
			c-2.364,3.421-3.227,7.028-2.986,10.395"/>
		<circle style="fill:#7952B3;" cx="431.166" cy="106.169" r="10.971"/>
		<path style="fill:none;stroke:#343A40;stroke-width:2;stroke-linecap:round;stroke-miterlimit:10;" d="M386.975,131.693
			c0,0-5.535-15.453,8.303-17.759c13.838-2.306,13.838-6.227,18.451-18.912c4.613-12.685,22.141,0.461,26.523-11.301
			c4.382-11.763-0.923-22.833,15.914-23.756"/>
	</g>
	<g>
		<path style="fill:#E1E8EB;" d="M459.78,196.987c0,21.66-17.559,39.218-39.218,39.218c-21.66,0-40.76-18.318-40.76-39.978
			s21.402-40.103,43.061-40.103C444.522,156.125,459.78,175.327,459.78,196.987z"/>
		<circle style="fill:#FFC107;" cx="419.854" cy="197.454" r="23.311"/>
		<path style="fill:none;stroke:#343A40;stroke-width:2;stroke-linecap:round;stroke-miterlimit:10;" d="M373.404,187.754
			c0,0-6.953,40.475,31.865,53.69"/>
		<path style="fill:none;stroke:#343A40;stroke-width:2;stroke-linecap:round;stroke-miterlimit:10;" d="M448.231,156.849
			c0.913,0,19.505,14.933,17.678,39.285"/>
	</g>
	<g>
		<path style="fill:none;stroke:#E1E8EB;stroke-width:16;stroke-linecap:round;stroke-miterlimit:10;" d="M68.987,229.926
			c18.911,5.732,42.184-3.214,44.597-22.517c3.991-31.93-31.543-44.832-46.407-23.319c-10.287,14.89,7.851,33.299,21.661,20.126"/>
		<path style="fill:none;stroke:#FFC107;stroke-width:16;stroke-linecap:round;stroke-miterlimit:10;" d="M46.665,178.401
			c-9.761,15.878-0.878,36.231,5.877,39.773"/>
		<path style="fill:none;stroke:#7952B3;stroke-width:16;stroke-linecap:round;stroke-miterlimit:10;" d="M86.045,151.132
			c0,0-14.933,1.048-26.939,10.273"/>
		<path style="fill:none;stroke:#343A40;stroke-width:2;stroke-linecap:round;stroke-miterlimit:10;" d="M85.619,190.342
			c0,0,10.691-28.968,26.209-32.072c15.519-3.104-12.07,30.003-8.621,36.21c3.449,6.207,19.312-10.001,22.416,2.069
			c3.104,12.07-26.899,8.277-26.209,17.588c0.69,9.311,11.725,14.484,11.725,14.484"/>
	</g>
	<g>
		<path style="fill:#E1E8EB;" d="M153.102,392.777c0,0-0.449,70.049,5.837,72.295c6.286,2.245,70.049,4.49,72.743,0
			c2.694-4.49-0.449-71.846-4.041-74.091C224.049,388.736,154.898,388.286,153.102,392.777z"/>
		<path style="fill:#7952B3;" d="M216.433,404.096c-1.096-0.782-2.465-1.147-3.859-1.151c-8.108-0.027-43.307,0.197-44.039,6.12
			C167.75,415.411,225.965,410.896,216.433,404.096z"/>
		<path style="fill:#7952B3;" d="M217.503,426.754c-1.079-0.806-2.439-1.201-3.833-1.237c-8.106-0.206-43.3-0.76-44.163,5.146
			C168.582,436.99,226.882,433.763,217.503,426.754z"/>
		<path style="fill:#7952B3;" d="M219.041,451.694c-0.999-0.903-2.317-1.423-3.701-1.588c-8.051-0.961-43.041-4.792-44.451,1.007
			C169.379,457.327,227.727,459.547,219.041,451.694z"/>
	</g>
	<g>
		<path style="fill:#E1E8EB;" d="M461.619,429.754c0,21.66-17.559,39.218-39.218,39.218s-40.76-18.318-40.76-39.978
			s21.402-40.103,43.061-40.103S461.619,408.095,461.619,429.754z"/>
		<path style="fill:#7952B3;" d="M429.359,417.526c0,0,25.719-24.6,29.632-22.923c3.914,1.677,23.482,23.482,21.805,26.837
			c-1.677,3.355-24.041,25.719-26.278,25.159S428.241,420.321,429.359,417.526z"/>
		
			<circle style="fill:none;stroke:#FFC107;stroke-width:16;stroke-linecap:round;stroke-miterlimit:10;" cx="383.902" cy="444.708" r="13.143"/>
		<path style="fill:none;stroke:#343A40;stroke-width:2;stroke-linecap:round;stroke-miterlimit:10;" d="M393.76,419.201
			c-0.227-0.68,11.781-26.054,45.085-17.219"/>
	</g>
	<g>
		<path style="fill:#E1E8EB;" d="M223.061,312.27c0,21.66-17.559,39.218-39.218,39.218c-21.66,0-40.76-18.318-40.76-39.978
			c0-21.66,21.402-40.103,43.061-40.103C207.803,271.408,223.061,290.61,223.061,312.27z"/>
		<path style="fill:#FFC107;" d="M212.841,266.092c0,0-31.803,26.373-32.579,34.13c-0.776,7.757,29.014-0.933,46.178-23.228
			C247.217,250.005,225.252,254.457,212.841,266.092z"/>
		<path style="fill:#FFC107;" d="M222.482,295.826c0,0-16.549,14.906-16.795,19.102c-0.247,4.195,17.087-0.025,24.361-13.529
			C238.754,285.233,228.911,289.285,222.482,295.826z"/>
		
			<circle style="fill:none;stroke:#343A40;stroke-width:2;stroke-linecap:round;stroke-miterlimit:10;" cx="157.604" cy="314.635" r="32.4"/>
	</g>
	<g>
		<path style="fill:#E1E8EB;" d="M262.194,277.292c0,0-0.449,70.049,5.837,72.294c6.286,2.245,70.049,4.49,72.744,0
			c2.694-4.49-0.449-71.845-4.041-74.091C333.141,273.251,263.99,272.802,262.194,277.292z"/>
		<path style="fill:#7952B3;" d="M285.035,308.846c0,0,16.571-15.85,19.092-14.77c2.522,1.081,15.13,15.13,14.049,17.291
			c-1.081,2.161-15.49,16.571-16.931,16.21C299.804,327.218,284.314,310.647,285.035,308.846z"/>
		
			<line style="fill:none;stroke:#343A40;stroke-width:2;stroke-linecap:round;stroke-miterlimit:10;" x1="273.473" y1="265.231" x2="276.146" y2="322.856"/>
		
			<line style="fill:none;stroke:#343A40;stroke-width:2;stroke-linecap:round;stroke-miterlimit:10;" x1="328.343" y1="305.469" x2="331.016" y2="363.093"/>
	</g>
	<g>
		<path style="fill:#FFC107;" d="M320.629,387.626c0,0-68.725,37.261-62.929,45.541c5.796,8.28,85.286,44.713,85.286,33.121
			S332.221,383.487,320.629,387.626z"/>
		<path style="fill:#7952B3;" d="M314.975,401.5c0,0-44.587,24.173-40.826,29.545c3.76,5.372,55.33,29.008,55.33,21.487
			C329.479,445.012,322.495,398.814,314.975,401.5z"/>
		<ellipse style="fill:#E1E8EB;" cx="285.859" cy="453.917" rx="20.611" ry="19.412"/>
		<path style="fill:none;stroke:#343A40;stroke-width:2;stroke-linecap:round;stroke-miterlimit:10;" d="M264.303,406.244
			c0,0,13.923-21.246,22.692-11.346c6.138,6.93-15.274,76.368-3.055,72.441c12.219-3.928,15.274-48.003,26.62-51.058
			c11.346-3.055,0,51.058,0,51.058"/>
	</g>
	<g>
		
			<ellipse transform="matrix(0.585 -0.8111 0.8111 0.585 -329.9283 215.4622)" style="fill:#E1E8EB;" cx="45.566" cy="430.107" rx="21.355" ry="21.355"/>
		<path style="fill:none;stroke:#FFC107;stroke-width:16;stroke-linecap:round;stroke-miterlimit:10;" d="M44.322,429.466
			c4.044,44.893,65.924,41.253,69.968,8.898c4.044-32.355-34.452-46.582-41.328-22.781c-5.09,17.619,40.223,33.071,51.463-20.574"/>
		<path style="fill:none;stroke:#343A40;stroke-width:2;stroke-linecap:round;stroke-miterlimit:10;" d="M56.328,403.363
			c0.413-1.65,13.203-26.818,46.623-14.853"/>
		<path style="fill:none;stroke:#343A40;stroke-width:2;stroke-linecap:round;stroke-miterlimit:10;" d="M24.255,450.177
			c0,0,5.582,7.638,18.508,8.52"/>
	</g>
	<g>
		<path style="fill:#E1E8EB;" d="M92.159,269.982c0,0-68.725,37.261-62.929,45.541c5.796,8.28,85.286,44.713,85.286,33.121
			S103.751,265.842,92.159,269.982z"/>
		<path style="fill:#7952B3;" d="M63.113,277.21c-1.567,1.11-2.674,2.749-3.29,4.568c-3.586,10.581-18.679,56.654-10.764,60.047
			C57.54,345.459,76.74,267.554,63.113,277.21z"/>
		<path style="fill:none;stroke:#343A40;stroke-width:2;stroke-linecap:round;stroke-miterlimit:10;" d="M76.419,302.736
			c0,0-11.485,25.085-5.44,24.783c6.045-0.302,9.067-15.716,14.205-16.018c5.138-0.302-8.16,42.615-7.858,41.406"/>
	</g>
	<g>
		<path style="fill:#E1E8EB;" d="M223.061,78.984c0,21.66-17.559,39.219-39.218,39.219c-21.66,0-40.76-18.318-40.76-39.978
			c0-21.66,21.402-40.103,43.061-40.103C207.803,38.123,223.061,57.325,223.061,78.984z"/>
		
			<ellipse transform="matrix(0.1965 -0.9805 0.9805 0.1965 25.86 244.2446)" style="fill:none;stroke:#343A40;stroke-width:2;stroke-linecap:round;stroke-miterlimit:10;" cx="161.961" cy="106.343" rx="18.61" ry="18.61"/>
		<path style="fill:#FFC107;" d="M199.003,56.646c-8.774-7.867-17.894-5.312-21.247-4.294c-0.515,0.156-0.684,0.796-0.319,1.192
			l30.038,32.549C210.299,75.254,207.04,63.852,199.003,56.646z"/>
		<path style="fill:none;stroke:#343A40;stroke-width:2;stroke-linecap:round;stroke-miterlimit:10;" d="M187.393,75.603
			c0.522,0.784,34.752,38.41,34.752,38.41"/>
	</g>
	<g>
		<path style="fill:none;stroke:#7952B3;stroke-width:16;stroke-linecap:round;stroke-miterlimit:10;" d="M382.813,328.345
			c8.813,37.772,65.987,33.211,68.076,2.666c2.133-31.195-28.579-30.324-32.099-14.906"/>
		<path style="fill:none;stroke:#E1E8EB;stroke-width:16;stroke-linecap:round;stroke-miterlimit:10;" d="M428.027,334.948
			c-8.348,5.71-37.062-1.343-25.863-32.699c10.16-28.45,45.584-16.667,46.79-16.185"/>
		<path style="fill:none;stroke:#343A40;stroke-width:2;stroke-linecap:round;stroke-miterlimit:10;" d="M374.88,309.921
			c0,0-2.677-26.235,25.7-38.014"/>
		<path style="fill:#FFC107;" d="M390.212,289.03c0,0-9.496,15.401-4.542,23.039c4.954,7.638,17.96-14.657,17.134-22.707
			C401.979,281.31,394.957,282.332,390.212,289.03z"/>
		<path style="fill:#FFC107;" d="M421.27,351.274c-5.548,0.557-10.31-1.634-10.637-4.894c-0.327-3.259,3.905-6.353,9.453-6.909
			c5.548-0.557,10.31,1.634,10.637,4.894S426.817,350.718,421.27,351.274z"/>
	</g>
</g>
</svg>
